<?xml version="1.0" encoding="UTF-8" standalone="no"?>
<!-- Created with Inkscape (http://www.inkscape.org/) -->

<svg
   xmlns:osb="http://www.openswatchbook.org/uri/2009/osb"
   xmlns:dc="http://purl.org/dc/elements/1.1/"
   xmlns:cc="http://creativecommons.org/ns#"
   xmlns:rdf="http://www.w3.org/1999/02/22-rdf-syntax-ns#"
   xmlns:svg="http://www.w3.org/2000/svg"
   xmlns="http://www.w3.org/2000/svg"
   xmlns:sodipodi="http://sodipodi.sourceforge.net/DTD/sodipodi-0.dtd"
   xmlns:inkscape="http://www.inkscape.org/namespaces/inkscape"
   width="1000"
   height="1000"
   viewBox="0 0 264.58333 264.58333"
   version="1.1"
   id="svg3686"
   inkscape:version="0.92.1 r15371"
   sodipodi:docname="FidgetSpinner.svg"
   inkscape:export-filename="C:\Users\David\Documents\Important and Stuff\Personal Projects\Project-Fidget\Documents\Art files\FidgetSpinner.png"
   inkscape:export-xdpi="96"
   inkscape:export-ydpi="96">
  <defs
     id="defs3680">
    <linearGradient
       id="linearGradient6434"
       osb:paint="solid">
      <stop
         style="stop-color:#000000;stop-opacity:1;"
         offset="0"
         id="stop6432" />
    </linearGradient>
    <inkscape:path-effect
       effect="skeletal"
       id="path-effect4848"
       is_visible="true"
       pattern="M 0,5 C 0,2.24 2.24,0 5,0 7.76,0 10,2.24 10,5 10,7.76 7.76,10 5,10 2.24,10 0,7.76 0,5 Z"
       copytype="single_stretched"
       prop_scale="0.31883663"
       scale_y_rel="false"
       spacing="0"
       normal_offset="0"
       tang_offset="0"
       prop_units="false"
       vertical_pattern="false"
       fuse_tolerance="0" />
  </defs>
  <sodipodi:namedview
     id="base"
     pagecolor="#ffffff"
     bordercolor="#666666"
     borderopacity="1.0"
     inkscape:pageopacity="0.0"
     inkscape:pageshadow="2"
     inkscape:zoom="0.5"
     inkscape:cx="443.3125"
     inkscape:cy="342.50577"
     inkscape:document-units="px"
     inkscape:current-layer="layer1"
     showgrid="false"
     units="px"
     inkscape:snap-global="false"
     showguides="true"
     inkscape:guide-bbox="true"
     inkscape:window-width="1920"
     inkscape:window-height="1057"
     inkscape:window-x="-8"
     inkscape:window-y="-8"
     inkscape:window-maximized="1" />
  <metadata
     id="metadata3683">
    <rdf:RDF>
      <cc:Work
         rdf:about="">
        <dc:format>image/svg+xml</dc:format>
        <dc:type
           rdf:resource="http://purl.org/dc/dcmitype/StillImage" />
        <dc:title />
      </cc:Work>
    </rdf:RDF>
  </metadata>
  <g
     inkscape:groupmode="layer"
     id="layer4"
     inkscape:label="Body Color">
    <path
       style="display:inline;fill:#ffffff;fill-opacity:1;stroke:#ffffff;stroke-width:5;stroke-miterlimit:4;stroke-dasharray:none;stroke-opacity:1;paint-order:stroke markers fill"
       d="m 749.54898,929.62782 c -19.78878,-4.3906 -33.93562,-9.71218 -51.85964,-19.50788 -28.0615,-15.33598 -45.38552,-32.06826 -72.98512,-70.49214 -35.52938,-49.4637 -67.13768,-69.12164 -115.22024,-71.65822 -62.56054,-3.30034 -97.4015,14.32574 -141.21742,71.44208 -28.1076,36.63972 -52.28456,56.0813 -86.71758,69.73272 -21.37114,8.47288 -42.40424,12.26728 -68,12.26728 -50.52937,0 -92.94245,-17.24174 -129.638122,-52.7004 -25.217516,-24.36744 -41.35813,-50.82116 -51.693336,-84.72296 -4.81733,-15.80194 -5.372125,-20.80768 -5.494668,-49.57664 -0.11709,-27.489 0.497523,-34.19588 4.359915,-47.577 17.180319,-59.52064 60.374573,-107.02008 114.370011,-125.76932 16.68132,-5.79238 36.03264,-9.481 66.74092,-12.72172 53.00062,-5.5933 73.09904,-13.47516 100.50002,-39.41248 19.3291,-18.2966 30.64308,-35.12392 38.29926,-56.96262 5.0221,-14.32514 5.45796,-18.01128 5.50496,-46.55686 l 0.051,-31 -9.68162,-23 c -5.3249,-12.65 -13.38442,-33.35 -17.91002,-46 -8.01304,-22.398 -8.24934,-23.79452 -9.02876,-53.35569 -1.5681,-59.47407 11.79586,-95.7561 49.98352,-135.70109 27.77764,-29.055915 57.47828,-46.70557 92.65398,-55.059781 21.5738,-5.123767 61.84044,-5.627251 81.69982,-1.021553 69.48042,16.113585 122.27116,65.837744 142.41068,134.138114 4.06258,13.77767 5.55558,24.04153 6.36468,43.75533 1.6074,39.16415 -1.97064,54.35221 -25.28308,107.32157 -13.85992,31.4918 -18.49286,50.13226 -18.62154,74.9231 -0.1216,23.42052 3.47228,39.23194 13.865,61 10.93858,22.91136 37.0803,47.09562 67.58084,62.52042 13.7501,6.95374 20.87324,8.64722 60.80612,14.45624 41.55746,6.04536 54.49668,9.22658 73.84094,18.15446 20.24168,9.34206 36.49274,21.41968 55.33224,41.1224 39.88326,41.71068 57.01972,85.40136 54.41946,138.74648 -3.4358,70.48662 -42.2252,127.66162 -107.91344,159.06282 -24.3355,11.6332 -43.86902,16.114 -74.51882,17.09394 -20.47226,0.65452 -29.6143,0.0294 -43,-2.9406 z m 69.18008,-52.21466 c 38.31424,-9.68396 68.67692,-32.86516 87.7584,-67.0015 9.99752,-17.88532 15.24724,-37.05926 16.42766,-60 1.34488,-26.13674 -2.50028,-44.38114 -14.45884,-68.60396 -15.48036,-31.3564 -43.48948,-56.04402 -76.67954,-67.58638 -37.49522,-13.03956 -78.3487,-9.5227 -112.84036,9.71382 -48.80518,27.21938 -76.874,82.79754 -69.39652,137.40986 4.4387,32.41842 16.30506,56.1606 40.09556,80.22306 25.42922,25.71992 58.39904,39.33574 96.09364,39.6846 11.05624,0.1024 22.81906,-1.26626 33,-3.8395 z m -576.18008,-2.99218 c 7.7,-1.60668 22.53044,-7.1322 32.95654,-12.27896 15.44096,-7.6223 21.98338,-12.38456 35.27782,-25.67902 13.47286,-13.47286 17.91184,-19.61366 25.4349,-35.18632 16.6136,-34.3899 19.39978,-68.52184 8.4195,-103.1428 -19.82078,-62.4952 -83.44064,-103.52678 -147.21231,-94.94446 -32.98158,4.43864 -57.64608,16.42904 -80.70704,39.23492 -42.753756,42.28086 -52.678204,103.2949 -25.838674,158.85234 7.523068,15.57266 11.962034,21.71346 25.434894,35.18632 26.61905,26.61906 59.32102,40.46822 96.23437,40.75494 8.8,0.0684 22.3,-1.19028 30,-2.79696 z M 530.72906,721.41316 c 38.31424,-9.68396 68.67692,-32.86516 87.7584,-67.0015 9.99752,-17.88532 15.24724,-37.05926 16.42766,-60 1.34488,-26.13674 -2.50028,-44.38114 -14.45884,-68.60396 -15.48036,-31.3564 -43.48948,-56.04402 -76.67954,-67.58638 -37.49522,-13.03956 -78.3487,-9.5227 -112.84036,9.71382 -48.80518,27.21938 -76.874,82.79754 -69.39652,137.40986 4.4387,32.41842 16.30506,56.1606 40.09556,80.22306 25.42922,25.71992 58.39904,39.33574 96.09364,39.6846 11.05624,0.1024 22.81906,-1.26626 33,-3.8395 z m 14.81992,-351.96788 c 21.6033,-7.24862 37.82068,-17.50018 55.14294,-34.85776 18.05888,-18.09572 25.97714,-30.6819 34.08328,-54.17586 4.92022,-14.26022 5.52166,-18.82714 5.53128,-42 0.01,-22.85002 -0.63532,-27.93845 -5.32218,-42 -17.44974,-52.35281 -61.8547,-88.77135 -115.56542,-94.78047 -68.3701,-7.649215 -131.07858,35.17084 -149.05396,101.78047 -4.3036,15.9474 -4.87698,50.41716 -1.09788,66 4.72062,19.46518 18.77746,45.78716 32.3738,60.62124 19.91644,21.72952 39.64376,33.69548 68.39086,41.4837 19.7358,5.34686 56.40626,4.34104 75.51728,-2.07132 z"
       id="path4678"
       inkscape:connector-curvature="0"
       inkscape:export-xdpi="96"
       inkscape:export-ydpi="96"
       transform="scale(0.26458333)" />
  </g>
  <g
     inkscape:label="Body"
     inkscape:groupmode="layer"
     id="layer1"
     transform="translate(0,-32.416687)"
     style="display:inline">
    <path
       style="fill:#000000;fill-opacity:1;stroke:none;stroke-width:0;stroke-miterlimit:4;stroke-dasharray:none;stroke-dashoffset:0;stroke-opacity:1"
       d="m 765.52034,939.22236 c -58.76457,-6.31743 -108.28693,-38.00925 -144.58016,-92.52386 -23.09782,-34.69433 -43.13925,-52.10309 -73.68823,-64.00837 -16.31149,-6.35674 -28.94307,-9.05796 -45.1378,-9.65236 -19.60659,-0.71962 -34.81338,1.88147 -55.06856,9.41937 -21.2121,7.89393 -37.45813,18.97642 -52.48027,35.80004 -3.54975,3.9755 -11.56361,14.06938 -17.80857,22.43091 -14.48638,19.39615 -19.40649,25.18347 -30.65858,36.06245 -28.82792,27.87189 -62.17327,43.86997 -105.60461,50.66576 -11.66917,1.82589 -42.91718,1.84137 -54.44723,0.0269 -27.72041,-4.36222 -54.01105,-13.72544 -73.89265,-26.31633 C 93.515684,889.32353 72.215534,870.28377 57.592131,852.35536 51.382824,844.74271 43.04929,830.07357 36.252407,814.79208 4.0369653,742.36176 16.548509,661.65498 68.997001,603.57029 92.568183,577.4661 125.4796,557.66834 160.30188,548.64609 c 15.85025,-4.1067 26.48532,-5.48129 49.07898,-6.34349 18.806,-0.71766 29.02176,-2.09509 41.7193,-5.62519 42.04141,-11.68813 80.27979,-47.0046 93.26264,-86.13617 4.70454,-14.17995 6.67982,-28.40885 6.69945,-48.25935 0.0217,-21.9818 -1.90463,-29.31662 -16.15674,-61.51829 -9.79676,-22.13513 -13.16145,-31.22058 -16.62866,-44.90128 -4.63144,-18.27445 -5.29244,-24.53698 -5.29904,-50.20458 -0.006,-23.73942 0.38328,-28.54976 3.59975,-44.47048 6.07236,-30.05677 18.8557,-57.5325 37.54058,-80.68742 7.27664,-9.01748 21.84108,-23.167129 31.1476,-30.260549 22.84388,-17.411583 48.11502,-29.199954 75.93147,-35.420178 43.16497,-9.652408 82.40593,-6.16674 121.88958,10.827116 30.00533,12.914365 59.35775,34.785151 75.43591,56.208081 8.44934,11.25808 20.0998,32.07423 27.7364,49.55722 9.75503,22.33284 14.70135,47.73433 14.73302,75.66042 0.0385,33.89418 -6.88944,59.71774 -27.41174,102.17693 -12.01999,24.86849 -15.56515,35.38383 -17.36296,51.50034 -1.24463,11.15754 -0.50723,33.28016 1.42918,42.87689 8.15995,40.4401 35.6973,74.90614 74.63972,93.41986 15.75498,7.4901 29.7547,11.29387 50.60947,13.75072 30.48493,3.59135 46.87645,6.5245 65.66555,11.75037 10.6568,2.96402 18.10865,5.97245 29.62692,11.96088 16.9135,8.79342 31.12076,19.27031 45.44879,33.51534 30.14807,29.97347 48.88484,67.23003 56.55568,112.45666 1.36464,8.04556 1.62564,12.21329 1.66071,26.51651 0.0438,17.83217 -1.54892,24.76251 -3.61968,39.21423 -2.69306,18.7947 -9.5055,35.128 -18.21118,52.06102 -9.04496,17.59303 -16.98775,28.12397 -33.03228,43.79621 -29.55,28.86431 -57.32161,44.87385 -90.73701,52.30738 -17.70722,3.93908 -25.38089,4.74101 -47.39842,4.95342 -11.27836,0.10876 -21.77889,0.0608 -23.33453,-0.10635 z m 35.00179,-5.2048 c 17.68502,-1.3196 38.09891,-5.5592 52.78078,-10.96164 16.7614,-6.16767 38.88557,-18.77679 53.28523,-30.36854 24.5166,-19.73598 41.36384,-41.06494 53.61666,-67.87999 12.8225,-24.53344 16.82754,-58.63824 16.28395,-81.25333 -0.69805,-29.04108 -3.81702,-40.42935 -11.97074,-61.25789 -11.032,-28.18085 -28.60084,-53.50332 -52.27301,-75.34263 -26.1353,-24.11174 -54.6392,-38.6271 -88.0348,-44.831 -4.27799,-0.79472 -17.80141,-2.72222 -30.05203,-4.28333 -39.46236,-5.02873 -47.44984,-6.90028 -63.5764,-14.89673 -17.38764,-8.62179 -35.27698,-21.70726 -48.87068,-35.74733 -8.29576,-8.56816 -11.00465,-12.36121 -16.54454,-23.16605 -21.67375,-42.27182 -21.18385,-85.27085 1.53155,-134.42667 18.11191,-39.19395 22.20581,-50.53911 26.15385,-72.47844 1.67255,-9.29445 1.84931,-12.00497 1.89052,-28.99138 0.0489,-20.14904 -0.6701,-27.52846 -4.27146,-43.84062 C 674.94624,133.97335 620.96838,78.59503 550.55988,60.750861 c -17.33336,-4.392927 -25.01497,-5.291034 -45.25483,-5.291034 -20.24572,0 -27.90774,0.896404 -45.30091,5.299899 -13.98987,3.541867 -22.15376,6.60458 -36.72348,13.776941 -20.06491,9.877523 -34.84116,20.55735 -51.28431,37.066733 -31.08693,31.21215 -46.67182,62.39876 -52.67983,105.41651 -1.5407,11.0315 -2.16451,38.62939 -1.10499,48.88605 1.90028,18.39579 7.3798,37.92984 16.53547,58.94774 2.54121,5.83363 6.84115,15.69777 9.55542,21.92031 8.18754,18.77015 10.72451,27.64698 12.12534,42.4264 2.75115,29.02595 -1.76454,57.02991 -12.72478,78.91261 -7.2064,14.38795 -14.89674,24.66645 -28.00843,37.43458 -17.44966,16.99244 -32.25736,26.45784 -51.4242,32.87147 -13.72998,4.59434 -25.27978,6.60557 -50.80918,8.84768 -32.79569,2.88027 -52.17026,6.72309 -73.14567,14.50794 -53.063369,19.69405 -96.634181,69.96017 -110.86632,127.9026 -12.337768,50.22999 -2.650483,104.55962 26.446781,148.32253 7.994627,12.02413 15.215306,20.6024 26.718578,31.74216 44.417971,43.01437 104.802731,61.52423 164.654261,50.47201 18.21985,-3.36456 35.09796,-9.1407 52.4779,-17.95938 27.79133,-14.10155 48.39279,-32.74647 71.93377,-65.10205 10.33562,-14.20563 14.55496,-19.23917 24.34125,-29.0384 12.34698,-12.36327 21.59321,-19.19201 35.29918,-26.07004 19.2102,-9.64013 38.29661,-13.53706 66.20597,-13.51748 30.37948,0.0212 41.29605,2.26876 63.63961,13.10184 19.25893,9.33756 33.93855,21.09477 48.1474,38.56229 2.36873,2.912 9.45086,12.63663 15.73806,21.61031 19.0593,27.20332 29.02238,38.64006 44.38148,50.94612 37.74579,30.24275 83.94632,44.78801 131.08871,41.27036 z"
       id="path4859"
       inkscape:connector-curvature="0"
       sodipodi:nodetypes="cscsccscscsssssssscsscscssscscsssssccsccscscccscccscssscssscsssssssssssssssssscsccsccccccss"
       inkscape:export-xdpi="96"
       inkscape:export-ydpi="96"
       transform="matrix(0.26458333,0,0,0.26458333,0,32.416687)" />
  </g>
  <g
     inkscape:groupmode="layer"
     id="layer2"
     inkscape:label="Handle"
     style="display:inline">
    <path
       style="fill:#ffffff;fill-opacity:1;stroke:none;stroke-width:0.79374999;stroke-miterlimit:4;stroke-dasharray:none;stroke-opacity:1"
       d="m 167.62042,155.28595 a 35.554636,35.554636 0 0 1 -35.55463,35.55463 35.554636,35.554636 0 0 1 -35.554627,-35.55463 35.554636,35.554636 0 0 1 35.554627,-35.55463 35.554636,35.554636 0 0 1 35.55463,35.55463 z"
       id="path4852"
       inkscape:connector-curvature="0"
       inkscape:export-xdpi="96"
       inkscape:export-ydpi="96" />
    <path
       style="fill:none;fill-opacity:1;stroke:#000000;stroke-width:1.32291665;stroke-miterlimit:4;stroke-dasharray:none;stroke-opacity:1"
       d="M 167.31712,155.575 A 35.554636,35.554636 0 0 1 131.76249,191.12963 35.554636,35.554636 0 0 1 96.207863,155.575 35.554636,35.554636 0 0 1 131.76249,120.02037 35.554636,35.554636 0 0 1 167.31712,155.575 Z"
       id="path4852-7"
       inkscape:connector-curvature="0"
       inkscape:export-xdpi="96"
       inkscape:export-ydpi="96" />
    <path
       style="display:inline;fill:none;fill-opacity:1;stroke:#000000;stroke-width:1.32291663;stroke-miterlimit:4;stroke-dasharray:none;stroke-opacity:1"
       d="M 168.82994,63.002933 A 35.554636,35.554636 0 0 1 133.27531,98.557547 35.554636,35.554636 0 0 1 97.720694,63.002933 35.554636,35.554636 0 0 1 133.27531,27.448303 35.554636,35.554636 0 0 1 168.82994,63.002933 Z"
       id="path4852-7-6-12"
       inkscape:connector-curvature="0"
       inkscape:export-xdpi="96"
       inkscape:export-ydpi="96" />
    <path
       style="display:inline;fill:none;fill-opacity:1;stroke:#787878;stroke-width:4.0915184;stroke-miterlimit:4;stroke-dasharray:none;stroke-opacity:1"
       d="m 166.56781,62.861453 a 33.238596,33.37089 0 0 1 -33.23859,33.370883 33.238596,33.37089 0 0 1 -33.23859,-33.370883 33.238596,33.37089 0 0 1 33.23859,-33.37087 33.238596,33.37089 0 0 1 33.23859,33.37087 z"
       id="path4852-7-6-1-0"
       inkscape:connector-curvature="0"
       inkscape:export-xdpi="96"
       inkscape:export-ydpi="96" />
    <path
       style="display:inline;fill:none;fill-opacity:1;stroke:#000000;stroke-width:13.22916603;stroke-miterlimit:4;stroke-dasharray:none;stroke-opacity:1;paint-order:markers stroke fill"
       d="m 158.4791,62.940493 a 25.15042,25.156043 0 0 1 -25.15042,25.15605 25.15042,25.156043 0 0 1 -25.15041,-25.15605 25.15042,25.156043 0 0 1 25.15041,-25.15603 25.15042,25.156043 0 0 1 25.15042,25.15603 z"
       id="path4852-7-6-1-6-8"
       inkscape:connector-curvature="0"
       inkscape:export-xdpi="96"
       inkscape:export-ydpi="96" />
    <path
       style="display:inline;fill:none;fill-opacity:1;stroke:#787878;stroke-width:2.3812499;stroke-miterlimit:4;stroke-dasharray:none;stroke-opacity:1"
       d="m 151.07116,63.018183 a 17.772978,17.843716 0 0 1 -17.77298,17.8437 17.772978,17.843716 0 0 1 -17.77298,-17.8437 17.772978,17.843716 0 0 1 17.77298,-17.84371 17.772978,17.843716 0 0 1 17.77298,17.84371 z"
       id="path4852-7-6-1-8-1"
       inkscape:connector-curvature="0"
       inkscape:export-xdpi="96"
       inkscape:export-ydpi="96" />
    <path
       style="display:inline;fill:none;fill-opacity:1;stroke:#000000;stroke-width:1.32291663;stroke-miterlimit:4;stroke-dasharray:none;stroke-opacity:1"
       d="M 243.51712,196.85 A 35.554636,35.554636 0 0 1 207.96249,232.40463 35.554636,35.554636 0 0 1 172.40786,196.85 35.554636,35.554636 0 0 1 207.96249,161.29536 35.554636,35.554636 0 0 1 243.51712,196.85 Z"
       id="path4852-7-6-8"
       inkscape:connector-curvature="0"
       inkscape:export-xdpi="96"
       inkscape:export-ydpi="96" />
    <path
       style="display:inline;fill:none;fill-opacity:1;stroke:#787878;stroke-width:4.0915184;stroke-miterlimit:4;stroke-dasharray:none;stroke-opacity:1"
       d="m 241.25499,196.70852 a 33.238596,33.37089 0 0 1 -33.23859,33.37089 33.238596,33.37089 0 0 1 -33.23859,-33.37089 33.238596,33.37089 0 0 1 33.23859,-33.37088 33.238596,33.37089 0 0 1 33.23859,33.37088 z"
       id="path4852-7-6-1-2"
       inkscape:connector-curvature="0"
       inkscape:export-xdpi="96"
       inkscape:export-ydpi="96" />
    <path
       style="display:inline;fill:none;fill-opacity:1;stroke:#000000;stroke-width:13.22916603;stroke-miterlimit:4;stroke-dasharray:none;stroke-opacity:1;paint-order:markers stroke fill"
       d="m 233.16629,196.78756 a 25.15042,25.156043 0 0 1 -25.15042,25.15605 25.15042,25.156043 0 0 1 -25.15042,-25.15605 25.15042,25.156043 0 0 1 25.15042,-25.15603 25.15042,25.156043 0 0 1 25.15042,25.15603 z"
       id="path4852-7-6-1-6-9"
       inkscape:connector-curvature="0"
       inkscape:export-xdpi="96"
       inkscape:export-ydpi="96" />
    <path
       style="display:inline;fill:none;fill-opacity:1;stroke:#787878;stroke-width:2.3812499;stroke-miterlimit:4;stroke-dasharray:none;stroke-opacity:1"
       d="m 225.75834,196.86525 a 17.772978,17.843716 0 0 1 -17.77298,17.8437 17.772978,17.843716 0 0 1 -17.77297,-17.8437 17.772978,17.843716 0 0 1 17.77297,-17.84371 17.772978,17.843716 0 0 1 17.77298,17.84371 z"
       id="path4852-7-6-1-8-17"
       inkscape:connector-curvature="0"
       inkscape:export-xdpi="96"
       inkscape:export-ydpi="96" />
  </g>
  <g
     inkscape:groupmode="layer"
     id="layer3"
     inkscape:label="Weights"
     style="display:inline">
    <path
       style="display:inline;fill:none;fill-opacity:1;stroke:#000000;stroke-width:1.32291663;stroke-miterlimit:4;stroke-dasharray:none;stroke-opacity:1"
       d="M 92.05541,195.7347 A 35.554636,35.554636 0 0 1 56.500776,231.28933 35.554636,35.554636 0 0 1 20.94615,195.7347 35.554636,35.554636 0 0 1 56.500776,160.18007 35.554636,35.554636 0 0 1 92.05541,195.7347 Z"
       id="path4852-7-6"
       inkscape:connector-curvature="0"
       inkscape:export-xdpi="96"
       inkscape:export-ydpi="96" />
    <path
       style="display:inline;fill:none;fill-opacity:1;stroke:#787878;stroke-width:4.0915184;stroke-miterlimit:4;stroke-dasharray:none;stroke-opacity:1"
       d="M 89.793279,195.59322 A 33.238597,33.370889 0 0 1 56.554684,228.96411 33.238597,33.370889 0 0 1 23.316095,195.59322 33.238597,33.370889 0 0 1 56.554684,162.22235 33.238597,33.370889 0 0 1 89.793279,195.59322 Z"
       id="path4852-7-6-1"
       inkscape:connector-curvature="0"
       inkscape:export-xdpi="96"
       inkscape:export-ydpi="96" />
    <path
       style="display:inline;fill:none;fill-opacity:1;stroke:#000000;stroke-width:13.2291665;stroke-miterlimit:4;stroke-dasharray:none;stroke-opacity:1;paint-order:markers stroke fill"
       d="M 81.704572,195.67226 A 25.15042,25.156043 0 0 1 56.554153,220.82831 25.15042,25.156043 0 0 1 31.403738,195.67226 25.15042,25.156043 0 0 1 56.554153,170.51623 25.15042,25.156043 0 0 1 81.704572,195.67226 Z"
       id="path4852-7-6-1-6"
       inkscape:connector-curvature="0"
       inkscape:export-xdpi="96"
       inkscape:export-ydpi="96" />
    <path
       style="display:inline;fill:none;fill-opacity:1;stroke:#787878;stroke-width:2.3812499;stroke-miterlimit:4;stroke-dasharray:none;stroke-opacity:1"
       d="m 74.296624,195.74995 a 17.772978,17.843716 0 0 1 -17.772978,17.8437 17.772978,17.843716 0 0 1 -17.772973,-17.8437 17.772978,17.843716 0 0 1 17.772973,-17.84371 17.772978,17.843716 0 0 1 17.772978,17.84371 z"
       id="path4852-7-6-1-8"
       inkscape:connector-curvature="0"
       inkscape:export-xdpi="96"
       inkscape:export-ydpi="96" />
  </g>
</svg>
